<svg width="32" height="33" viewBox="0 0 32 33" fill="none" xmlns="http://www.w3.org/2000/svg">
<g clip-path="url(#clip0_631_8087)">
<path d="M8.19251 0.5H18.9023L27.9686 9.95411V28.3392C27.9686 30.635 26.1037 32.5 23.8017 32.5H8.19255C5.8967 32.5 4.03174 30.635 4.03174 28.3392V4.66081C4.0317 2.36496 5.89666 0.5 8.19251 0.5Z" fill="#0263D1"/>
<path fill-rule="evenodd" clip-rule="evenodd" d="M18.8901 0.5V9.88028H27.9688L18.8901 0.5Z" fill="white"/>
<path d="M20.2196 17.1494H11.7811C11.3933 17.1494 11.0732 16.8355 11.0732 16.4477C11.0732 16.06 11.3933 15.7461 11.7811 15.7461H20.2196C20.6074 15.7461 20.9213 16.06 20.9213 16.4477C20.9213 16.8355 20.6074 17.1494 20.2196 17.1494ZM17.4068 25.5879H11.7811C11.3933 25.5879 11.0732 25.274 11.0732 24.8863C11.0732 24.4986 11.3933 24.1846 11.7811 24.1846H17.4068C17.7946 24.1846 18.1084 24.4986 18.1084 24.8863C18.1084 25.274 17.7946 25.5879 17.4068 25.5879ZM20.2196 22.7751H11.7811C11.3933 22.7751 11.0732 22.4612 11.0732 22.0734C11.0732 21.6857 11.3933 21.3718 11.7811 21.3718H20.2196C20.6074 21.3718 20.9213 21.6857 20.9213 22.0734C20.9213 22.4612 20.6074 22.7751 20.2196 22.7751ZM20.2196 19.9623H11.7811C11.3933 19.9623 11.0732 19.6483 11.0732 19.2606C11.0732 18.8729 11.3933 18.5589 11.7811 18.5589H20.2196C20.6074 18.5589 20.9213 18.8729 20.9213 19.2606C20.9213 19.6483 20.6074 19.9623 20.2196 19.9623Z" fill="white"/>
</g>
<defs>
<clipPath id="clip0_631_8087">
<rect width="32" height="32" fill="white" transform="translate(0 0.5)"/>
</clipPath>
</defs>
</svg>
