<svg width="32" height="33" viewBox="0 0 32 33" fill="none" xmlns="http://www.w3.org/2000/svg">
<g clip-path="url(#clip0_631_8068)">
<path fill-rule="evenodd" clip-rule="evenodd" d="M10.5362 0.5H21.3735L30.9399 10.0682V28.4419C30.9399 30.6731 29.1148 32.5 26.8819 32.5H10.5362C8.30511 32.5 6.47998 30.6731 6.47998 28.4419V4.55806C6.47998 2.32694 8.30511 0.5 10.5362 0.5Z" fill="#F9464B"/>
<path fill-rule="evenodd" clip-rule="evenodd" d="M21.3737 0.5L30.9401 10.0682H22.4051C21.8364 10.0682 21.3737 9.60369 21.3737 9.03494V0.5ZM1.9502 14.1263H23.9888C24.4789 14.1263 24.8794 14.5268 24.8794 15.0169V23.1019C24.8794 23.592 24.4789 23.9925 23.9888 23.9925H1.9502C1.46007 23.9925 1.05957 23.592 1.05957 23.1019V15.0169C1.05957 14.5268 1.46013 14.1263 1.9502 14.1263Z" fill="white"/>
<path d="M7.35966 15.7754H5.69729C5.56027 15.7754 5.42887 15.8298 5.33198 15.9267C5.23509 16.0236 5.18066 16.155 5.18066 16.292V21.8259C5.18066 21.9629 5.23509 22.0943 5.33198 22.1912C5.42887 22.2881 5.56027 22.3425 5.69729 22.3425C5.83431 22.3425 5.96571 22.2881 6.0626 22.1912C6.15948 22.0943 6.21391 21.9629 6.21391 21.8259V20.2046H7.3596C8.5611 20.2046 9.5386 19.2271 9.5386 18.0257V17.9544C9.53866 16.7529 8.56116 15.7754 7.35966 15.7754ZM8.50541 18.0256C8.50541 18.6574 7.99141 19.1713 7.35966 19.1713H6.21391V16.8086H7.3596C7.99135 16.8086 8.50535 17.3226 8.50535 17.9543V18.0256H8.50541ZM12.9192 15.7754H11.2569C11.1198 15.7754 10.9884 15.8298 10.8915 15.9267C10.7947 16.0236 10.7402 16.155 10.7402 16.292V21.8259C10.7402 21.9629 10.7947 22.0943 10.8915 22.1912C10.9884 22.2881 11.1198 22.3425 11.2569 22.3425H12.9192C14.1207 22.3425 15.0982 21.365 15.0982 20.1636V17.9544C15.0982 16.7529 14.1207 15.7754 12.9192 15.7754ZM14.0649 20.1635C14.0649 20.7953 13.5509 21.3092 12.9192 21.3092H11.7735V16.8086H12.9192C13.5509 16.8086 14.0649 17.3226 14.0649 17.9543V20.1635ZM17.4335 16.8086V18.2388H19.8283C19.9653 18.2388 20.0967 18.2932 20.1936 18.3901C20.2905 18.487 20.3449 18.6184 20.3449 18.7554C20.3449 18.8924 20.2905 19.0238 20.1936 19.1207C20.0967 19.2176 19.9653 19.272 19.8283 19.272H17.4335V21.8259C17.4335 21.9629 17.379 22.0943 17.2822 22.1912C17.1853 22.2881 17.0539 22.3425 16.9169 22.3425C16.7798 22.3425 16.6484 22.2881 16.5515 22.1912C16.4547 22.0943 16.4002 21.9629 16.4002 21.8259V16.292C16.4002 16.155 16.4547 16.0236 16.5515 15.9267C16.6484 15.8298 16.7798 15.7754 16.9169 15.7754H20.2415C20.3786 15.7754 20.51 15.8298 20.6068 15.9267C20.7037 16.0236 20.7582 16.155 20.7582 16.292C20.7582 16.429 20.7037 16.5604 20.6068 16.6573C20.51 16.7542 20.3786 16.8086 20.2415 16.8086H17.4335Z" fill="#101828"/>
</g>
<defs>
<clipPath id="clip0_631_8068">
<rect width="32" height="32" fill="white" transform="translate(0 0.5)"/>
</clipPath>
</defs>
</svg>
