<svg width="32" height="33" viewBox="0 0 32 33" fill="none" xmlns="http://www.w3.org/2000/svg">
<g clip-path="url(#clip0_631_8117)">
<path fill-rule="evenodd" clip-rule="evenodd" d="M10.5363 0.5H21.3725L30.9412 10.0669V28.4417C30.9412 30.6747 29.1142 32.5 26.883 32.5H10.5363C8.30509 32.5 6.47803 30.6747 6.47803 28.4417V4.55831C6.47809 2.32519 8.30515 0.5 10.5363 0.5Z" fill="#E5252A"/>
<path fill-rule="evenodd" clip-rule="evenodd" d="M21.3725 0.5L30.9413 10.0669H22.4058C21.837 10.0669 21.3725 9.60419 21.3725 9.03537V0.5H21.3725ZM1.94977 14.1252H23.9878C24.478 14.1252 24.8803 14.5257 24.8803 15.0159V23.1014C24.8803 23.5915 24.478 23.9939 23.9878 23.9939H1.94977C1.45964 23.9939 1.05908 23.5915 1.05908 23.1014V15.0159C1.05908 14.5257 1.45958 14.1252 1.94977 14.1252Z" fill="white"/>
<path d="M7.86607 15.7754H6.20364C6.06662 15.7754 5.93521 15.8298 5.83833 15.9267C5.74144 16.0236 5.68701 16.155 5.68701 16.292V21.8261C5.68701 21.9632 5.74144 22.0946 5.83833 22.1915C5.93521 22.2883 6.06662 22.3428 6.20364 22.3428C6.34065 22.3428 6.47206 22.2883 6.56895 22.1915C6.66583 22.0946 6.72026 21.9632 6.72026 21.8261V20.2048H7.86601C9.06757 20.2048 10.0451 19.2273 10.0451 18.0258V17.9545C10.0451 16.7529 9.06757 15.7754 7.86607 15.7754ZM9.01182 18.0258C9.01182 18.6575 8.49782 19.1715 7.86607 19.1715H6.72032V16.8086H7.86607C8.49782 16.8086 9.01182 17.3226 9.01182 17.9544V18.0258ZM13.1534 15.7754H11.4909C11.3539 15.7754 11.2225 15.8298 11.1256 15.9267C11.0287 16.0236 10.9743 16.155 10.9743 16.292V21.8261C10.9743 21.9632 11.0287 22.0946 11.1256 22.1915C11.2225 22.2883 11.3539 22.3428 11.4909 22.3428C11.6279 22.3428 11.7593 22.2883 11.8562 22.1915C11.9531 22.0946 12.0075 21.9632 12.0075 21.8261V20.2048H13.1533C14.3549 20.2048 15.3323 19.2273 15.3323 18.0258V17.9545C15.3324 16.7529 14.3549 15.7754 13.1534 15.7754ZM14.2991 18.0258C14.2991 18.6575 13.7852 19.1715 13.1534 19.1715H12.0076V16.8086H13.1534C13.7852 16.8086 14.2991 17.3226 14.2991 17.9544V18.0258ZM20.2521 16.292C20.2521 16.3599 20.2388 16.427 20.2128 16.4897C20.1868 16.5524 20.1488 16.6094 20.1008 16.6573C20.0528 16.7053 19.9959 16.7434 19.9332 16.7693C19.8705 16.7953 19.8034 16.8086 19.7355 16.8086H18.5879V21.8261C18.5879 22.1115 18.3566 22.3428 18.0712 22.3428C17.7858 22.3428 17.5546 22.1115 17.5546 21.8261V16.8086H16.4088C16.2717 16.8086 16.1403 16.7542 16.0435 16.6573C15.9466 16.5604 15.8921 16.429 15.8921 16.292C15.8921 16.155 15.9466 16.0236 16.0435 15.9267C16.1403 15.8298 16.2717 15.7754 16.4088 15.7754H19.7354C20.0208 15.7754 20.2521 16.0066 20.2521 16.292Z" fill="#101828"/>
</g>
<defs>
<clipPath id="clip0_631_8117">
<rect width="32" height="32" fill="white" transform="translate(0 0.5)"/>
</clipPath>
</defs>
</svg>
